# xmcd
#
# Track frame offsets:
#	150
#	15878
#	38157
#	49091
#	64627
#	82051
#	98371
#	110781
#	126191
#	139717
#	155477
#	168859
#
# Disc length: 2414 seconds
#
# Revision: 1
# Processed by: cddbd v1.5.1PL0 Copyright (c) Steve Scherf et al.
# Submitted via: audiograbber 1.82.01
#
DISCID=90096c0c
DTITLE=Various Artist - Lopðinës 3
DYEAR=1900
DGENRE=
TTITLE0=Þaneta Taurinskienë su dukrele Adriana - Angelëliui
TTITLE1=Þaneta Taurinskienë su dukrele Adriana - Mano angele
TTITLE2=Eva - Mamos lopðinë
TTITLE3=Eva - Sapnø fëja
TTITLE4=Birutë Dambrauskaitë - Vaikystës bliuzas
TTITLE5=Asta Staðaitytë-Masalskienë - Vëjo lopðinë
TTITLE6=Asta Staðaitytë-Masalskienë - Vëjo pilis
TTITLE7=Edita Gabalienë - Miegok ramiai
TTITLE8=Edita Gabalienë - Lopðinë
TTITLE9=Sandra Chlevickaitë - Þiemos pasaka
TTITLE10=Sandra Chlevickaitë - Nykðtukø lopðinë
TTITLE11=Inga Valinskienë - Lopðinë
EXTD=
EXTT0=
EXTT1=
EXTT2=
EXTT3=
EXTT4=
EXTT5=
EXTT6=
EXTT7=
EXTT8=
EXTT9=
EXTT10=
EXTT11=
PLAYORDER=
